<svg width="19" height="26" viewBox="0 0 19 26" fill="none" xmlns="http://www.w3.org/2000/svg">
<circle cx="9.5" cy="9.5" r="9.5" fill="#783BFF"/>
<path d="M9.28416 25.0455L12.8368 18.2444H5.73149L9.28416 25.0455Z" fill="#783BFF"/>
<path fill-rule="evenodd" clip-rule="evenodd" d="M9.50015 3.92285C6.42104 3.92285 3.9231 6.42079 3.9231 9.49991C3.9231 12.579 6.42104 15.077 9.50015 15.077C12.5793 15.077 15.0772 12.579 15.0772 9.49991C15.0772 6.42079 12.5793 3.92285 9.50015 3.92285ZM9.20955 12.7858V10.4723H7.72308C7.51632 10.4723 7.37661 10.2487 7.4772 10.0643L9.53367 6.05755C9.6622 5.7949 10.059 5.8899 10.059 6.18608V8.52755H11.4784C11.6851 8.52755 11.8193 8.74549 11.7298 8.9299L9.74044 12.9087C9.60632 13.177 9.20955 13.082 9.20955 12.7858Z" fill="white"/>
</svg>
