<svg width="34" height="45" viewBox="0 0 34 45" fill="none" xmlns="http://www.w3.org/2000/svg">
<circle cx="17" cy="17" r="17" fill="#CB1D1D"/>
<path d="M16.6136 44.8182L22.971 32.6478H10.2562L16.6136 44.8182Z" fill="#CB1D1D"/>
<path fill-rule="evenodd" clip-rule="evenodd" d="M22.9191 11.5831C20.8791 10.1922 18.36 10.8413 17 12.4331C15.64 10.8413 13.121 10.1845 11.081 11.5831C9.99914 12.325 9.31914 13.5768 9.27278 14.8981C9.16459 17.8963 11.8228 20.2995 15.8796 23.9854L15.9569 24.055C16.5441 24.5881 17.4482 24.5881 18.0355 24.0472L18.1205 23.97C22.1773 20.2918 24.8278 17.8886 24.7273 14.8904C24.681 13.5768 24.001 12.325 22.9191 11.5831ZM17.0773 22.8341L17 22.9113L16.9228 22.8341C13.2446 19.5036 10.8182 17.3013 10.8182 15.0681C10.8182 13.5227 11.9773 12.3636 13.5228 12.3636C14.7128 12.3636 15.8719 13.1286 16.2814 14.1872H17.7264C18.1282 13.1286 19.2873 12.3636 20.4773 12.3636C22.0228 12.3636 23.1819 13.5227 23.1819 15.0681C23.1819 17.3013 20.7555 19.5036 17.0773 22.8341Z" fill="white"/>
</svg>
