<svg width="34" height="45" viewBox="0 0 34 45" fill="none" xmlns="http://www.w3.org/2000/svg">
<circle cx="17" cy="17" r="17" fill="#AB9B09"/>
<path d="M16.6136 44.8182L22.971 32.6478H10.2562L16.6136 44.8182Z" fill="#AB9B09"/>
<path fill-rule="evenodd" clip-rule="evenodd" d="M11 24C11 25.1 11.9 26 13 26H21C22.1 26 23 25.1 23 24V14C23 12.9 22.1 12 21 12H13C11.9 12 11 12.9 11 14V24ZM14 14H20C20.55 14 21 14.45 21 15V23C21 23.55 20.55 24 20 24H14C13.45 24 13 23.55 13 23V15C13 14.45 13.45 14 14 14ZM20.5 9L19.79 8.29C19.61 8.11 19.35 8 19.09 8H14.91C14.65 8 14.39 8.11 14.21 8.29L13.5 9H11C10.45 9 10 9.45 10 10C10 10.55 10.45 11 11 11H23C23.55 11 24 10.55 24 10C24 9.45 23.55 9 23 9H20.5Z" fill="white"/>
</svg>
